<?xml version="1.0" standalone="no"?>
<!DOCTYPE svg PUBLIC "-//W3C//DTD SVG 20010904//EN"
 "http://www.w3.org/TR/2001/REC-SVG-20010904/DTD/svg10.dtd">
<svg version="1.0" xmlns="http://www.w3.org/2000/svg"
 width="1120.000000pt" height="1120.000000pt" viewBox="0 0 1120.000000 1120.000000"
 preserveAspectRatio="xMidYMid meet">
<metadata>
Created by potrace 1.14, written by Peter Selinger 2001-2017
</metadata>
<g transform="translate(0.000000,1120.000000) scale(0.100000,-0.100000)"
fill="#000000" stroke="none">
<path d="M2900 7500 c-603 -51 -1115 -356 -1447 -862 -76 -115 -162 -293 -201
-412 l-27 -85 -37 -1 c-182 -1 -526 153 -733 329 l-59 51 -74 -72 -73 -73 68
-64 c188 -177 563 -357 786 -378 l69 -6 -6 -46 c-3 -25 -9 -113 -12 -196 -14
-334 55 -639 213 -945 84 -164 174 -290 303 -423 179 -186 328 -296 545 -402
615 -299 1322 -248 1892 136 323 218 584 555 718 929 36 102 82 294 91 380 l7
70 818 0 818 0 6 -47 c29 -224 97 -444 200 -650 93 -184 178 -305 320 -452
171 -177 326 -290 530 -386 697 -329 1496 -179 2037 382 278 289 457 660 513
1063 18 131 21 399 6 505 -6 39 -11 73 -11 76 0 4 28 12 61 18 210 42 466 179
662 354 l89 80 -72 72 -73 73 -101 -81 c-128 -102 -198 -147 -311 -202 -84
-41 -246 -95 -284 -95 -13 0 -23 20 -40 74 -34 110 -109 278 -173 386 -189
321 -455 567 -783 726 -346 168 -703 217 -1085 150 -346 -62 -696 -250 -951
-513 -258 -266 -426 -581 -503 -943 -14 -63 -27 -149 -31 -190 -3 -41 -8 -99
-11 -127 l-5 -53 -810 0 -809 0 0 55 c0 79 -27 265 -56 377 -145 578 -575
1068 -1131 1289 -257 102 -578 151 -843 129z"/>
</g>
</svg>
