<svg width="28" height="22" viewBox="0 0 28 22" fill="none" xmlns="http://www.w3.org/2000/svg">
<path d="M23.703 1.75451C21.918 0.949938 20.0045 0.355253 18.0038 0.0170989C17.9859 0.01368 17.9675 0.0158952 17.951 0.0234161C17.9345 0.0309369 17.9211 0.0433906 17.912 0.0590759C17.667 0.489347 17.3933 1.05023 17.202 1.49333C15.08 1.17644 12.9226 1.17644 10.8006 1.49333C10.5875 1.00226 10.3473 0.523424 10.0809 0.0590759C10.0719 0.0431975 10.0583 0.0304634 10.0418 0.0225463C10.0254 0.0146293 10.0072 0.0119194 9.98911 0.0147796C7.98951 0.352933 6.07601 0.947612 4.2899 1.75335C4.27453 1.75979 4.26173 1.77077 4.25279 1.78483C0.622225 7.11949 -0.372751 12.3224 0.116068 17.46C0.117428 17.4726 0.121569 17.4848 0.127787 17.4958C0.134004 17.5068 0.142135 17.5165 0.152201 17.5241C2.27126 19.0661 4.63438 20.2408 7.14341 20.999C7.1609 21.0043 7.17964 21.0043 7.19712 20.9989C7.2146 20.9935 7.23065 20.983 7.24204 20.9686C7.78196 20.2469 8.25979 19.4813 8.67173 18.6797C8.67745 18.6687 8.68085 18.6567 8.6815 18.6443C8.68215 18.632 8.68017 18.6196 8.67564 18.6081C8.6711 18.5966 8.66403 18.5863 8.65513 18.5777C8.64623 18.5691 8.63554 18.5625 8.62388 18.5584C7.87024 18.2748 7.14037 17.9324 6.44029 17.5346C6.42771 17.5275 6.41671 17.5173 6.40904 17.505C6.40137 17.4927 6.39727 17.4787 6.39634 17.4643C6.39542 17.4498 6.39811 17.4354 6.40415 17.4222C6.41019 17.409 6.41896 17.3976 6.43052 17.3889C6.57752 17.2804 6.7251 17.1673 6.86509 17.0542C6.87769 17.0441 6.89297 17.0376 6.90904 17.0355C6.9251 17.0335 6.94115 17.0359 6.95591 17.0426C11.5373 19.0995 16.4985 19.0995 21.0262 17.0426C21.041 17.0355 21.0578 17.0327 21.0741 17.0346C21.0904 17.0364 21.1062 17.0428 21.119 17.053C21.259 17.1673 21.4044 17.2804 21.5526 17.3889C21.5643 17.3974 21.5737 17.4087 21.5799 17.4218C21.5862 17.4348 21.5894 17.4492 21.5887 17.4636C21.588 17.4781 21.5835 17.4921 21.576 17.5045C21.5686 17.5169 21.5582 17.5272 21.5458 17.5346C20.8481 17.9358 20.122 18.2751 19.3602 18.5572C19.3485 18.5615 19.3379 18.5682 19.329 18.5769C19.3201 18.5856 19.314 18.5961 19.3094 18.6076C19.3049 18.6192 19.3029 18.6317 19.3036 18.6441C19.3042 18.6565 19.3076 18.6686 19.3133 18.6797C19.7333 19.4808 20.2136 20.2433 20.742 20.9675C20.753 20.9823 20.7685 20.9934 20.786 20.9993C20.8035 21.0051 20.822 21.0054 20.8397 21.0001C23.353 20.2441 25.7203 19.0689 27.8417 17.5241C27.852 17.5169 27.8616 17.5075 27.868 17.4967C27.8745 17.4858 27.8784 17.4737 27.8797 17.4612C28.4631 11.5213 26.9019 6.3604 23.7391 1.78716C23.7314 1.7723 23.7186 1.76071 23.703 1.75451ZM9.35728 14.3315C7.97832 14.3315 6.84068 13.085 6.84068 11.5563C6.84068 10.0264 7.95615 8.78111 9.35728 8.78111C10.7689 8.78111 11.8951 10.0369 11.8729 11.5563C11.8729 13.0862 10.7584 14.3315 9.35728 14.3315ZM18.661 14.3315C17.2809 14.3315 16.1444 13.085 16.1444 11.5563C16.1444 10.0264 17.2587 8.78111 18.661 8.78111C20.0726 8.78111 21.1998 10.0369 21.1776 11.5563C21.1776 13.0862 20.0738 14.3315 18.661 14.3315Z" fill="#62D7C7"/>
</svg>
