<svg width="498" height="61" viewBox="0 0 498 61" fill="none" xmlns="http://www.w3.org/2000/svg">
<ellipse cx="38.9432" cy="30.2307" rx="37.9432" ry="30.0769" fill="#01DAC7"/>
<circle cx="20.5952" cy="31.1509" r="13.5952" fill="#161616"/>
<ellipse cx="58.9428" cy="31.1509" rx="13.0514" ry="13.5952" fill="#161616"/>
<path d="M31.979 31.6945H48.3114M71 28.1826C73.0665 28.1826 75.5019 26.7852 77.1333 25.1538M7.5 28.1538C5.43356 28.1538 2.63143 26.7852 1 25.1538" stroke="#161616" stroke-width="1.5"/>
<path d="M95.1333 57.4528V3.00876H103.869V50.1208H128.673V57.4528H95.1333Z" fill="white"/>
<path d="M146.817 3.00876V36.4708C146.817 38.7068 146.869 40.7348 146.973 42.5548C147.129 44.3748 147.519 45.9348 148.143 47.2348C148.767 48.4828 149.703 49.4448 150.951 50.1208C152.199 50.7968 153.915 51.1348 156.099 51.1348C158.283 51.1348 159.999 50.7968 161.247 50.1208C162.495 49.4448 163.431 48.4828 164.055 47.2348C164.679 45.9348 165.043 44.3748 165.147 42.5548C165.303 40.7348 165.381 38.7068 165.381 36.4708V3.00876H174.117V34.9108C174.117 38.8108 173.883 42.2428 173.415 45.2068C172.999 48.1188 172.141 50.5628 170.841 52.5388C169.541 54.4628 167.695 55.9188 165.303 56.9068C162.963 57.8948 159.895 58.3888 156.099 58.3888C152.303 58.3888 149.209 57.8948 146.817 56.9068C144.477 55.9188 142.657 54.4628 141.357 52.5388C140.057 50.5628 139.173 48.1188 138.705 45.2068C138.289 42.2428 138.081 38.8108 138.081 34.9108V3.00876H146.817Z" fill="white"/>
<path d="M203.648 58.3888C196.732 58.3888 191.584 55.9448 188.204 51.0568C184.876 46.1688 183.212 39.2268 183.212 30.2308C183.212 21.2348 184.876 14.2928 188.204 9.40475C191.584 4.51675 196.732 2.07275 203.648 2.07275C206.3 2.07275 208.588 2.43675 210.512 3.16475C212.488 3.84075 214.178 4.80275 215.582 6.05075C216.986 7.24675 218.156 8.67675 219.092 10.3408C220.08 11.9528 220.886 13.6948 221.51 15.5668L213.632 18.2188C213.216 16.9708 212.748 15.8008 212.228 14.7088C211.708 13.6168 211.058 12.6808 210.278 11.9008C209.498 11.1208 208.562 10.4968 207.47 10.0288C206.43 9.56075 205.13 9.32675 203.57 9.32675C199.722 9.32675 196.914 10.8088 195.146 13.7728C193.378 16.6848 192.494 20.6368 192.494 25.6288V34.8328C192.494 39.8248 193.378 43.8028 195.146 46.7668C196.914 49.6788 199.722 51.1348 203.57 51.1348C205.13 51.1348 206.43 50.9008 207.47 50.4328C208.562 49.9648 209.498 49.3408 210.278 48.5608C211.058 47.7808 211.708 46.8448 212.228 45.7528C212.748 44.6608 213.216 43.4908 213.632 42.2428L221.51 44.8948C220.886 46.7668 220.08 48.5348 219.092 50.1988C218.156 51.8108 216.986 53.2408 215.582 54.4888C214.178 55.6848 212.488 56.6468 210.512 57.3748C208.588 58.0508 206.3 58.3888 203.648 58.3888Z" fill="white"/>
<path d="M246.05 32.4148L239.498 40.6048V57.4528H230.762V3.00876H239.498V29.0608H239.888L246.518 20.0128L259.856 3.00876H269.918L251.978 25.9408L270.62 57.4528H260.636L246.05 32.4148Z" fill="white"/>
<path d="M291.699 57.4528V36.9388L273.603 3.00876H283.353L290.295 16.5808L295.911 28.2028H296.379L302.073 16.5808L309.015 3.00876H318.531L300.435 36.9388V57.4528H291.699Z" fill="white"/>
<path d="M325.053 3.00876H341.277C348.245 3.00876 353.393 5.32276 356.721 9.95076C360.101 14.5788 361.791 21.3388 361.791 30.2308C361.791 39.1228 360.101 45.8828 356.721 50.5108C353.393 55.1388 348.245 57.4528 341.277 57.4528H325.053V3.00876ZM340.731 50.2768C344.735 50.2768 347.699 48.9508 349.623 46.2988C351.599 43.5948 352.587 39.7468 352.587 34.7548V25.7068C352.587 20.7148 351.599 16.8928 349.623 14.2408C347.699 11.5368 344.735 10.1848 340.731 10.1848H333.711V50.2768H340.731Z" fill="white"/>
<path d="M378.764 3.00876V36.4708C378.764 38.7068 378.816 40.7348 378.92 42.5548C379.076 44.3748 379.466 45.9348 380.09 47.2348C380.714 48.4828 381.651 49.4448 382.898 50.1208C384.146 50.7968 385.862 51.1348 388.046 51.1348C390.23 51.1348 391.947 50.7968 393.194 50.1208C394.442 49.4448 395.378 48.4828 396.002 47.2348C396.626 45.9348 396.99 44.3748 397.094 42.5548C397.25 40.7348 397.328 38.7068 397.328 36.4708V3.00876H406.064V34.9108C406.064 38.8108 405.83 42.2428 405.362 45.2068C404.946 48.1188 404.088 50.5628 402.788 52.5388C401.488 54.4628 399.642 55.9188 397.25 56.9068C394.91 57.8948 391.842 58.3888 388.046 58.3888C384.25 58.3888 381.156 57.8948 378.764 56.9068C376.424 55.9188 374.604 54.4628 373.304 52.5388C372.004 50.5628 371.12 48.1188 370.652 45.2068C370.237 42.2428 370.028 38.8108 370.028 34.9108V3.00876H378.764Z" fill="white"/>
<path d="M417.032 3.00876H433.256C440.224 3.00876 445.372 5.32276 448.7 9.95076C452.08 14.5788 453.77 21.3388 453.77 30.2308C453.77 39.1228 452.08 45.8828 448.7 50.5108C445.372 55.1388 440.224 57.4528 433.256 57.4528H417.032V3.00876ZM432.71 50.2768C436.714 50.2768 439.678 48.9508 441.602 46.2988C443.578 43.5948 444.566 39.7468 444.566 34.7548V25.7068C444.566 20.7148 443.578 16.8928 441.602 14.2408C439.678 11.5368 436.714 10.1848 432.71 10.1848H425.69V50.2768H432.71Z" fill="white"/>
<path d="M463.334 57.4528V3.00876H497.42V10.3408H472.07V26.1748H496.484V33.5068H472.07V50.1208H497.42V57.4528H463.334Z" fill="white"/>
</svg>
