<?xml version="1.0" encoding="utf-8"?><svg xmlns="http://www.w3.org/2000/svg" xmlns:xlink="http://www.w3.org/1999/xlink"><symbol viewBox="0 0 28 22" id="discord" xmlns="http://www.w3.org/2000/svg"><path d="M23.703 1.755a23.34 23.34 0 00-5.7-1.738.088.088 0 00-.091.042c-.245.43-.519.991-.71 1.434a21.671 21.671 0 00-6.401 0 14.55 14.55 0 00-.72-1.434.09.09 0 00-.092-.044c-2 .338-3.913.933-5.7 1.738a.081.081 0 00-.036.032C.623 7.119-.373 12.322.116 17.46a.093.093 0 00.036.064A23.372 23.372 0 007.143 21a.092.092 0 00.099-.03 16.12 16.12 0 001.43-2.29.086.086 0 00-.048-.12 15.394 15.394 0 01-2.184-1.024.088.088 0 01-.031-.03.087.087 0 01-.005-.083.086.086 0 01.027-.033c.147-.109.294-.222.434-.335a.087.087 0 01.09-.012c4.582 2.057 9.544 2.057 14.071 0a.088.088 0 01.093.011c.14.114.285.227.434.336.011.008.02.02.027.033a.087.087 0 01-.034.113c-.698.4-1.424.74-2.186 1.022a.088.088 0 00-.031.02.088.088 0 00-.016.103c.42.8.9 1.563 1.429 2.288a.089.089 0 00.098.033 23.292 23.292 0 007.002-3.477.087.087 0 00.038-.063c.583-5.94-.978-11.1-4.14-15.674a.07.07 0 00-.037-.032zM9.357 14.332c-1.379 0-2.516-1.247-2.516-2.776 0-1.53 1.115-2.775 2.516-2.775 1.412 0 2.538 1.256 2.516 2.775 0 1.53-1.115 2.776-2.516 2.776zm9.304 0c-1.38 0-2.517-1.247-2.517-2.776 0-1.53 1.115-2.775 2.517-2.775 1.412 0 2.539 1.256 2.517 2.775 0 1.53-1.104 2.776-2.517 2.776z"/></symbol><symbol viewBox="0 0 18 21" id="lock" xmlns="http://www.w3.org/2000/svg"><path d="M15 7h2a1 1 0 011 1v12a1 1 0 01-1 1H1a1 1 0 01-1-1V8a1 1 0 011-1h2V6a6 6 0 1112 0v1zm-7 7.732V17h2v-2.268a2 2 0 10-2 0zM13 7V6a4 4 0 10-8 0v1h8z"/></symbol><symbol viewBox="0 0 28 24" id="twitter" xmlns="http://www.w3.org/2000/svg"><path d="M27.55 3.554c-1.018.45-2.098.745-3.203.877A5.593 5.593 0 0026.8 1.347a11.147 11.147 0 01-3.541 1.352 5.577 5.577 0 00-9.502 5.083A15.838 15.838 0 012.264 1.958a5.553 5.553 0 00-.755 2.803c0 1.933.984 3.64 2.48 4.64a5.56 5.56 0 01-2.525-.698v.07a5.576 5.576 0 004.473 5.465 5.614 5.614 0 01-2.52.096 5.578 5.578 0 005.21 3.872 11.193 11.193 0 01-8.255 2.308 15.779 15.779 0 008.547 2.505c10.257 0 15.866-8.493 15.866-15.859 0-.24-.006-.482-.017-.72a11.325 11.325 0 002.783-2.885l-.002-.001z"/></symbol></svg>