<svg width="28" height="24" viewBox="0 0 28 24" fill="none" xmlns="http://www.w3.org/2000/svg">
<path d="M27.5494 3.55369C26.5315 4.00373 25.452 4.2993 24.3467 4.43061C25.5117 3.73418 26.3837 2.63813 26.8001 1.34671C25.7067 1.99708 24.5081 2.45286 23.2587 2.69942C22.4195 1.80194 21.3072 1.20673 20.0947 1.00632C18.8821 0.805908 17.6373 1.01152 16.5538 1.5912C15.4702 2.17088 14.6086 3.09215 14.1029 4.21177C13.5972 5.33139 13.4757 6.58665 13.7574 7.78238C11.5402 7.67131 9.37118 7.0954 7.39112 6.09205C5.41106 5.08871 3.66424 3.68036 2.26407 1.95843C1.76846 2.8093 1.50801 3.77655 1.5094 4.76112C1.5094 6.69356 2.4934 8.40076 3.9894 9.40029C3.10408 9.37244 2.23825 9.13346 1.46407 8.70329V8.77259C1.46434 10.0596 1.9099 11.3069 2.7252 12.303C3.54051 13.2991 4.67538 13.9828 5.9374 14.238C5.11556 14.4607 4.25381 14.4935 3.4174 14.334C3.77323 15.4418 4.46675 16.4106 5.40086 17.1049C6.33497 17.7991 7.46291 18.1839 8.62674 18.2055C7.47004 19.1135 6.14564 19.7848 4.72924 20.1808C3.31285 20.5769 1.83224 20.69 0.37207 20.5138C2.921 22.1523 5.8882 23.0221 8.91874 23.0193C19.1761 23.0193 24.7854 14.5259 24.7854 7.16001C24.7854 6.92012 24.7787 6.67756 24.7681 6.44034C25.8599 5.6516 26.8022 4.67452 27.5507 3.55502L27.5494 3.55369Z" fill="#62D7C7"/>
</svg>
